<?xml version="1.0" encoding="UTF-8"?>
<svg id="ART" xmlns="http://www.w3.org/2000/svg" viewBox="0 0 659.05 144.33">
  <defs>
    <style>
      .cls-1 {
        fill: #6738b2;
      }

      .cls-1, .cls-2, .cls-3, .cls-4, .cls-5, .cls-6, .cls-7, .cls-8 {
        fill-rule: evenodd;
      }

      .cls-2 {
        fill: #9852ce;
      }

      .cls-3 {
        fill: #a0a0a0;
      }

      .cls-4 {
        fill: #7a42bc;
      }

      .cls-5 {
        fill: #cd90f4;
      }

      .cls-9 {
        fill: #fff;
      }

      .cls-6 {
        fill: #250e36;
      }

      .cls-7 {
        fill: #5431a8;
      }

      .cls-8 {
        fill: #412aa0;
      }
    </style>
  </defs>
  <g>
    <path class="cls-6" d="M144.02,115.02c-10.78,10.82-54.78,34.8-79.19,27.94-28.32-7.96-52.52-48.06-61.24-68.37C0,66.22-1.13,56.26,1.81,51.61c3.42-5.42,8.39-6.96,15.72-9.48,4.75-1.62,11.65-3.06,31.74-5.96,8.41-6.96,12.09-9.01,14.99-11.04C86.74,9.35,106.1.36,123.3.84c18.62.52,32.57,29.23,32.57,48.43,2.04,9.46,5.28,20.78,1.23,38.21-.17.71-.34,1.41-.52,2.08-.01.04-.02.64-.03.68-2.7,11.62-7.69,21.52-12.53,24.78h0ZM52.61,46.51c-1.01.45-1.69.82-2.71,1.62-14.07,12.61-23.21,21.3-26.71,27.3,1.98,8.15,57.68,30.86,93.72,33.26,8.33-8.39,15.98-17.8,22-26.7,7.22-11.74,6.12-21.76,2.64-25.55-11.7-12.4-48.56-15.58-86.37-10.66-.39.08-1.67.34-2.57.74Z"/>
    <path class="cls-3" d="M155.87,49.27c.35,1.64-4.65,2.2-3.13-.52,6.06-10.8-6.44-34.24-19.65-43.28-3.49-2.39-9.81-3.96-12.54-3.81-.99.05,1.47-.86,2.75-.83,18.62.52,32.57,29.23,32.57,48.43h0Z"/>
    <g>
      <path class="cls-8" d="M47.53,36.82c1.46-1.17,3.94-2.99,5.53-4.24C75.09,15.36,112.51-7.19,131.93,2.59c1.89.95,3.9,2.27,5.44,3.73,19.75,17.45,25.79,57.56,19.38,84.37.71-3.71,1.16-7.47,1.38-11.22.9-15.46-2.07-30.8-6.17-42.34-3.87-10.86-8.51-20.06-12.36-23.91-2.52-2.52-5.16-4.43-7.81-5.63-9.1-4.1-23.33-1.93-37.64,4.06-14.09,5.9-20.79,12.1-42.76,24.99,0,0-3.94.25-3.86.18Z"/>
      <path class="cls-8" d="M156.74,90.68c-2.07,10.56-7.76,18.79-7.76,18.79,0,0,5.65-12.4,6.12-23.99.35-8.64,2.36-16.5,2.36-16.5l1.07-.45s.54,2.22.32,6.51-.05,5.09-2.12,15.65Z"/>
      <path id="_5" data-name=" 5" class="cls-7" d="M50.04,36.33c25.53-15.44,57.46-29.69,75.57-28.83,5.4.25,10.04,1.37,13.61,3.51,2.6,1.57,4.7,3.7,6.37,6.31,7.41,11.54,13.92,32.63,12.89,52.53-1.57,30.3-13.31,40.17-15,42.98,2.44-5.08,8.01-15.42,10.01-23.82,2-8.4,1.88-19.75,1.33-28.96-1.23-20.46-5.88-34.42-12.45-40.99-1.2-1.2-2.5-2.24-3.81-3.2-4.36-3.17-11.56-4.27-20.34-3.25-18.57,2.18-36.35,10.41-63.87,23.33,0,0-4.41.47-4.3.4Z"/>
      <path id="_9" data-name=" 9" class="cls-1" d="M54.49,35.85c-.41.18-4.29.55-3.99.41,1.31-.6,2.62-1.18,3.92-1.76,11.66-5.16,24.1-9.59,35.23-13.09,14.9-4.68,26.73-6.72,35.89-6.72,9.65,0,16.04,1.99,20.57,6.07,3.19,2.87,4.88,6.23,6.23,10.82,4.19,14.21,6.7,37.37,1.38,56.98-3.27,12.1-12.03,22.41-17.51,29.36,5.25-7.22,11.55-17.96,14.47-29.76,3.03-12.25,3.27-25.37,2.87-37.07-.2-5.82-.78-8.65-2.09-13.52-1.37-5.12-2.95-8.92-6.88-12.47-7.24-6.54-22.98-8.41-51.58-.94-12.44,3.56-23.73,6.19-36.31,11.71h-2.21Z"/>
      <path id="_13" data-name=" 13" class="cls-4" d="M50.18,36.37c.18-.06.36-.12.54-.18,19.3-6.43,41.17-11.63,59.57-13.65,20.56-2.26,34.1.59,39.62,6.99,1.53,1.78,2.74,3.78,3.66,5.98,1.58,3.8,1.97,9.58,1.45,16.34-1.05,13.69.89,26.45-6.08,41.76s-16.72,24.89-22.1,29.63c1.63-1.5,13.59-15.96,19.62-30.16,6.02-14.2,7.82-35.71,4.66-51.31-.67-3.32-2.34-5.98-4.29-8.08-12.24-13.08-52.42-7.25-85.74,1.86-1.65.45-11.05.87-10.9.81Z"/>
      <path id="_17" data-name=" 17" class="cls-2" d="M51.8,36.11c10.67-2.39,21.79-4.33,32.65-5.69,14.54-1.81,28.99-2.76,40.54-1.7,18.67,1.72,23.78,5.92,27.36,10.2,8.52,10.17,1.79,35.03-6.6,53.83-8.39,18.8-31.97,37.04-31.6,36.73,10.48-8.78,19.62-20.79,27.1-34.06,13.99-26.68,13.94-44.56,8.28-51.91-1.98-2.57-4.66-5.1-9.35-7.12-5.7-2.44-12.4-4.09-24.62-4.27-16.85-.25-20.25-.28-40.69,2.45,0,0-23.42,1.62-23.06,1.54Z"/>
      <path id="_21" data-name=" 21" class="cls-5" d="M7.18,46.55c2.77-2.11,4.67-3.63,15.76-7.1,11.08-3.47,58.87-7.43,89.3-5.48,19.09,1.22,34.56,5.61,40.2,13.25,4.24,5.33,4.14,10.71,2.29,17.66-1.32,4.97-2.61,10.4-5.52,16.14-4.93,9.74-12.54,20.12-20.51,29.87-9.1,11.13-20.87,19.19-31.82,24.74,13.66-8.01,27.8-21.32,39.27-38.16,13.95-20.48,19.48-36.94,14.71-45.25-3.58-7.36-14.98-11.15-29.5-13.43-12.32-1.93-24.09-2.23-39.5-2.02-31.53.42-61.55,3.73-74.7,9.8h0Z"/>
    </g>
    <g>
      <path class="cls-8" d="M23.74,77.83c-6.16-6.31-14.49-14.78-11.22-23.22.17,6.48,5.32,15.37,11.47,21.42.28.27.56.54.84.8,2.81,2.61,4.38,3.79,7.45,5.58,15.28,8.94,51.78,19,77.74,22.56,3.39.47,6.65.77,9.71.89-.02.02-2.8,2.8-2.83,2.83-.49.49-1.12,1.13-1.88,1.87-33.65-1.9-88.46-25.01-91.29-32.73h0Z"/>
      <g>
        <path id="_51" data-name=" 51" class="cls-7" d="M19.61,73.5c-5.07-5.61-9.66-12.25-7.09-18.89.14,5.16,3.99,15.95,12.84,23.35,16.5,13.8,58.78,32.01,87.98,34.58-.67.6-4.14,3.43-4.88,4.07-33.4-3.61-90.72-34.53-88.85-43.12h0Z"/>
        <path id="_91" data-name=" 91" class="cls-1" d="M16.25,69.45c-3.45-4.64-5.71-9.74-3.73-14.84.11,7.02,3.89,15.04,12.64,23.8,17.36,17.36,55.5,37.6,81.33,40.38-.77.58-4.32,2.82-5.12,3.39-31.85-4.24-88.32-43.97-85.11-52.72h0Z"/>
        <path id="_131" data-name=" 131" class="cls-4" d="M13.56,65.19c-1.73-3.42-2.43-7-1.04-10.58.18,7.03.64,10.83,8.73,20.65,16.04,19.46,53.3,46.63,77.91,48.49-.94.56-4.65,2.75-5.62,3.26-30.18-3.61-84.04-52.6-79.98-61.82h0Z"/>
        <path id="_171" data-name=" 171" class="cls-2" d="M17.2,70.68c12.82,21.9,50.07,57.07,74.12,56.94.2,0,1.15-.02,1.35-.03-4.87,2.47-7.99,3.26-8.66,3.15-17.71-1.64-41.62-22.8-57.1-41.79-3.86-4.73-7.19-9.36-9.77-13.49-4.74-7.58-5.36-18.95-4.63-20.85.04,1.44-2.32,4.11,4.68,16.06h0Z"/>
        <path id="_211" data-name=" 211" class="cls-5" d="M13.35,59.11c1.29,6.31,3.53,12.37,6.61,18.02,11.99,21.98,37.02,51.61,56.75,53.57,7.44.74,13.8-1.42,22.48-7.03-9.37,6.43-16.5,10.29-24.52,9.49-20.38-2.03-53.35-41.04-60.91-63.1-3.85-11.23-1.42-15.37-1.24-15.46-.05.08-.03.12,0,0,.26,1.59.54,3.1.83,4.5Z"/>
      </g>
    </g>
  </g>
  <g id="TYPOGRAPHY-1">
    <g>
      <path class="cls-9" d="M221.86,98.33c11.27,0,19.32-5.02,19.32-14.87,0-11.27-8.24-13.45-18.09-15.44-8.43-1.7-13.16-2.75-13.16-8.05,0-3.88,2.84-7.01,9.85-7.01s10.8,2.84,11.55,9.28h7.86c-1.14-9.57-7.1-15.34-19.23-15.34-11.36,0-17.62,5.3-17.62,13.45,0,10.7,8.62,12.69,18.28,14.68,9,1.89,12.79,3.31,12.79,8.81,0,4.55-3.31,8.05-11.36,8.05-7.29,0-12.97-2.37-14.02-10.89h-7.87c.76,10.99,8.25,17.33,21.7,17.33h0Z"/>
      <path class="cls-9" d="M287.49,97.38c1.99,0,3.22-.38,4.17-.76v-5.59h-.28c-4.26.95-5.21-1.23-5.21-5.21v-23.3c0-11.65-7.67-15.53-18.09-15.53-12.97,0-19.23,7.1-19.51,16.57h7.39c.28-7.39,4.26-10.8,12.22-10.8,7.01,0,10.99,3.13,10.99,8.62s-4.83,5.97-11.74,7.01c-12.22,1.89-21.31,4.26-21.31,15.82,0,9.28,7.29,13.64,16.57,13.64,8.33,0,13.35-3.98,16.29-7.77h.09c.76,5.02,3.41,7.29,8.43,7.29ZM264.39,91.98c-5.02,0-10.13-1.42-10.13-7.96,0-7.2,6.16-8.52,13.83-9.94,4.17-.76,8.62-1.99,11.18-3.6v8.33c0,5.68-4.64,13.16-14.87,13.16Z"/>
      <path class="cls-9" d="M297.34,96.91h7.67v-30.5c0-7.67,6.63-13.16,12.6-13.16,5.02,0,8.43,3.6,8.43,9.66v34h7.67v-30.5c0-7.67,5.68-13.16,12.03-13.16,4.92,0,9,3.6,9,9.66v34h7.67v-34.38c0-10.13-6.16-15.72-14.87-15.72-5.97,0-11.84,3.13-14.96,8.71h-.19c-2.08-5.68-6.82-8.71-12.79-8.71s-11.36,3.41-14.4,8.14h-.19v-7.01h-7.67v48.96h0Z"/>
      <path class="cls-9" d="M395.85,98.33c13.26,0,21.12-10.04,21.12-25.76s-8.43-25.76-20.84-25.76c-7.11,0-12.04,3.13-15.73,8.14h-.19v-25.76h-7.67v67.72h7.67v-6.44h.19c3.98,5.49,8.81,7.86,15.45,7.86h0ZM395.28,91.89c-10.43,0-15.54-8.24-15.54-19.23s4.92-19.32,15.64-19.32c9.28,0,13.73,8.33,13.73,19.32s-4.45,19.23-13.83,19.23h0Z"/>
      <path class="cls-9" d="M463.09,97.38c1.99,0,3.22-.38,4.17-.76v-5.59h-.28c-4.26.95-5.21-1.23-5.21-5.21v-23.3c0-11.65-7.67-15.53-18.09-15.53-12.97,0-19.23,7.1-19.51,16.57h7.39c.28-7.39,4.26-10.8,12.22-10.8,7.01,0,10.99,3.13,10.99,8.62s-4.83,5.97-11.74,7.01c-12.22,1.89-21.31,4.26-21.31,15.82,0,9.28,7.29,13.64,16.57,13.64,8.33,0,13.35-3.98,16.29-7.77h.09c.76,5.02,3.41,7.29,8.43,7.29h0ZM439.98,91.98c-5.02,0-10.13-1.42-10.13-7.96,0-7.2,6.16-8.52,13.83-9.94,4.17-.76,8.62-1.99,11.18-3.6v8.33c0,5.68-4.64,13.16-14.87,13.16h0Z"/>
      <path class="cls-9" d="M480.61,47.95h-7.67v48.96h7.67v-30.12c0-8.05,5.68-13.54,13.45-13.54,6.91,0,11.08,3.6,11.08,9.94v33.72h7.67v-34.38c0-10.13-6.25-15.72-16.48-15.72-7.1,0-12.03,2.94-15.53,7.58h-.19v-6.44h0Z"/>
      <path class="cls-9" d="M543.87,98.24c14.68,0,23.58-11.55,23.58-25.76s-8.9-25.76-23.58-25.76-23.68,11.55-23.68,25.76,9.09,25.76,23.68,25.76ZM543.87,91.8c-10.42,0-15.82-8.52-15.82-19.32s5.4-19.41,15.82-19.41,15.72,8.62,15.72,19.41-5.3,19.32-15.72,19.32Z"/>
      <path class="cls-9" d="M586.31,96.91h8.52l17.62-48.96h-7.96l-10.32,31.06c-1.42,4.26-3.22,10.32-3.22,10.32h-.19s-1.8-5.97-3.22-10.32l-10.14-31.06h-8.24l17.15,48.96Z"/>
      <path class="cls-9" d="M654.88,97.38c1.99,0,3.22-.38,4.17-.76v-5.59h-.28c-4.26.95-5.21-1.23-5.21-5.21v-23.3c0-11.65-7.67-15.53-18.09-15.53-12.97,0-19.23,7.1-19.51,16.57h7.39c.28-7.39,4.26-10.8,12.22-10.8,7.01,0,10.99,3.13,10.99,8.62s-4.83,5.97-11.74,7.01c-12.22,1.89-21.31,4.26-21.31,15.82,0,9.28,7.29,13.64,16.57,13.64,8.33,0,13.35-3.98,16.29-7.77h.09c.76,5.02,3.41,7.29,8.43,7.29h0ZM631.77,91.98c-5.02,0-10.13-1.42-10.13-7.96,0-7.2,6.16-8.52,13.83-9.94,4.17-.76,8.62-1.99,11.18-3.6v8.33c0,5.68-4.64,13.16-14.87,13.16h0Z"/>
    </g>
  </g>
</svg>